HIERARCHY
ROOT Pelvis
{
	OFFSET 0.000000 0.000000 0.000000
	CHANNELS 6 Xposition Yposition Zposition Xrotation Yrotation Zrotation
	JOINT LeftUpLeg_virtual
	{
		OFFSET 0.000000 0.000000 0.000000
		CHANNELS 3 Xrotation Yrotation Zrotation
		JOINT LeftUpLeg
		{
			OFFSET 8.479700 -4.795502 -0.379100
			CHANNELS 3 Xrotation Yrotation Zrotation
			JOINT LeftLeg
			{
				OFFSET 0.024144 -32.555107 0.112900
				CHANNELS 3 Xrotation Yrotation Zrotation
				JOINT LeftFoot
				{
					OFFSET -0.024144 -32.638630 -3.012600
					CHANNELS 3 Xrotation Yrotation Zrotation
					JOINT LeftToeBase
					{
						OFFSET 0.970200 -13.225400 11.864200
						CHANNELS 3 Xrotation Yrotation Zrotation
						End Site
						{
							OFFSET 0 0 0
						}
					}
				}
			}
		}
	}
	JOINT RightUpLeg_virtual
	{
		OFFSET 0.000000 0.000000 0.000000
		CHANNELS 3 Xrotation Yrotation Zrotation
		JOINT RightUpLeg
		{
			OFFSET -8.479700 -4.795502 -0.379100
			CHANNELS 3 Xrotation Yrotation Zrotation
			JOINT RightLeg
			{
				OFFSET -0.023144 -32.555092 0.112900
				CHANNELS 3 Xrotation Yrotation Zrotation
				JOINT RightFoot
				{
					OFFSET 0.023144 -32.638641 -3.012700
					CHANNELS 3 Xrotation Yrotation Zrotation
					JOINT RightToeBase
					{
						OFFSET -0.970200 -13.225400 11.864200
						CHANNELS 3 Xrotation Yrotation Zrotation
						End Site
						{
							OFFSET 0 0 0
						}
					}
				}
			}
		}
	}
	JOINT Hips_virtual
	{
		OFFSET 0.000000 0.000000 0.000000
		CHANNELS 3 Xrotation Yrotation Zrotation
		JOINT Hips
		{
			OFFSET -0.000000 -0.000000 -0.000000
			CHANNELS 3 Xrotation Yrotation Zrotation
			JOINT Spine
			{
				OFFSET 0.000000 7.722000 1.166200
				CHANNELS 3 Xrotation Yrotation Zrotation
				JOINT Spine1
				{
					OFFSET 0.000000 12.024101 0.248800
					CHANNELS 3 Xrotation Yrotation Zrotation
					JOINT Spine2
					{
						OFFSET 0.000000 11.502998 -0.491200
						CHANNELS 3 Xrotation Yrotation Zrotation
						JOINT Neck_virtual
						{
							OFFSET 0.000000 0.000000 0.000000
							CHANNELS 3 Xrotation Yrotation Zrotation
							JOINT Neck
							{
								OFFSET 0.000000 18.430702 -3.123100
								CHANNELS 3 Xrotation Yrotation Zrotation
								JOINT Head
								{
									OFFSET 0.000000 9.051102 1.034000
									CHANNELS 3 Xrotation Yrotation Zrotation
									End Site
									{
										OFFSET 0 0 0
									}
								}
							}
						}
						JOINT LeftShoulder_virtual
						{
							OFFSET 0.000000 0.000000 0.000000
							CHANNELS 3 Xrotation Yrotation Zrotation
							JOINT LeftShoulder
							{
								OFFSET 6.197800 13.665199 -4.064700
								CHANNELS 3 Xrotation Yrotation Zrotation
								JOINT LeftArm
								{
									OFFSET 7.778100 -0.187103 -1.709300
									CHANNELS 3 Xrotation Yrotation Zrotation
									JOINT LeftForeArm
									{
										OFFSET 22.049376 0.000000 0.000000
										CHANNELS 3 Xrotation Yrotation Zrotation
										JOINT LeftHand
										{
											OFFSET 23.009392 0.000000 0.000000
											CHANNELS 3 Xrotation Yrotation Zrotation
											End Site
											{
												OFFSET 0 0 0
											}
										}
									}
								}
							}
						}
						JOINT RightShoulder_virtual
						{
							OFFSET 0.000000 0.000000 0.000000
							CHANNELS 3 Xrotation Yrotation Zrotation
							JOINT RightShoulder
							{
								OFFSET -6.197800 13.665199 -4.064700
								CHANNELS 3 Xrotation Yrotation Zrotation
								JOINT RightArm
								{
									OFFSET -7.778100 -0.187103 -1.709300
									CHANNELS 3 Xrotation Yrotation Zrotation
									JOINT RightForeArm
									{
										OFFSET -22.049376 0.000000 0.000000
										CHANNELS 3 Xrotation Yrotation Zrotation
										JOINT RightHand
										{
											OFFSET -23.009392 0.000000 0.000000
											CHANNELS 3 Xrotation Yrotation Zrotation
											End Site
											{
												OFFSET 0 0 0
											}
										}
									}
								}
							}
						}
					}
				}
			}
		}
	}
}
MOTION
Frames: 4
Frame Time: 0.03333333
7.843356 10.663456 -14.155266 0.000000 0.000000 0.000000 -115.445087 73.372399 34.241231 -92.225579 3.348506 0.562053 91.587748 0.839137 -0.253776 -1.621721 0.173932 -3.687985 0.000000 0.000000 0.000000 -115.445087 73.372399 34.241231 -37.937053 4.173878 8.139145 85.256969 -8.163919 -3.633276 38.229651 -1.457141 8.488866 0.000000 0.000000 0.000000 -115.445087 73.372399 34.241231 -0.000001 0.000000 -0.000001 15.207869 -10.841694 -7.496221 10.269408 -4.988678 -4.175170 0.000000 0.000000 0.000000 10.075512 -5.450800 -4.055233 -3.272616 7.228372 -14.282609 0.000000 0.000000 0.000000 10.075512 -5.450800 -4.055233 4.010585 -4.908948 30.425928 -98.272174 29.592966 -48.772270 0.000001 -29.022078 -0.000000 0.000000 0.000000 0.000000 10.075512 -5.450800 -4.055233 5.201613 10.649076 -16.868037 -39.319531 45.122815 97.301229 179.999868 77.063488 -179.999855 0.000000 0.000000 0.000000 
7.857812 10.663963 -14.150002 0.000000 0.000000 0.000000 -115.416892 73.293169 34.195404 -92.020912 3.304474 0.660787 91.714892 0.365620 -0.337186 -2.690960 0.226639 -3.808954 0.000000 0.000000 0.000000 -115.416892 73.293169 34.195404 -37.894521 4.157867 8.145929 85.262658 -8.179454 -3.644486 38.208952 -1.428629 8.408899 0.000000 0.000000 0.000000 -115.416892 73.293169 34.195404 0.000000 -0.000001 0.000000 15.153050 -10.823023 -7.442633 10.226783 -5.010030 -4.150916 0.000000 0.000000 0.000000 10.032184 -5.472378 -4.029280 -3.171010 7.239969 -14.352365 0.000000 0.000000 0.000000 10.032184 -5.472378 -4.029280 4.063072 -4.848782 30.216753 -98.229404 29.536163 -48.772820 0.000000 -28.953100 0.000000 0.000000 0.000000 0.000000 10.032184 -5.472378 -4.029280 5.188618 10.588839 -17.043098 -39.537814 45.274196 97.619803 179.999868 77.206204 -179.999868 0.000000 0.000000 0.000000 
7.873326 10.667168 -14.144547 0.000000 0.000000 0.000000 -115.397275 73.216076 34.156086 -91.818049 3.255134 0.762799 91.836961 -0.094912 -0.419980 -3.714127 0.278394 -3.922587 0.000000 0.000000 0.000000 -115.397275 73.216076 34.156086 -37.847847 4.135974 8.154758 85.267679 -8.182637 -3.655103 38.186829 -1.415253 8.336278 0.000000 0.000000 0.000000 -115.397275 73.216076 34.156086 0.000000 0.000000 0.000000 15.100391 -10.805141 -7.388452 10.185751 -5.031181 -4.126517 0.000000 0.000000 0.000000 9.990484 -5.493610 -4.003249 -3.062553 7.250388 -14.443439 0.000000 0.000000 0.000000 9.990484 -5.493610 -4.003249 4.107888 -4.790350 29.995056 -98.160241 29.449529 -48.783544 0.000000 -28.883002 0.000000 0.000000 0.000000 0.000000 9.990484 -5.493610 -4.003249 5.169984 10.526236 -17.181288 -39.744683 45.430020 97.916574 179.999650 77.336483 -179.999650 0.000000 0.000000 0.000000 
7.889649 10.672836 -14.138641 0.000000 0.000000 0.000000 -115.386935 73.141825 34.123710 -91.618307 3.201324 0.867028 91.952296 -0.537457 -0.502074 -4.688017 0.328302 -4.024077 0.000000 0.000000 0.000000 -115.386935 73.141825 34.123710 -37.797963 4.108079 8.163755 85.272979 -8.184757 -3.664598 38.162323 -1.405091 8.263535 0.000000 0.000000 0.000000 -115.386935 73.141825 34.123710 0.000000 0.000001 0.000000 15.050049 -10.787300 -7.334952 10.146127 -5.051342 -4.102138 0.000000 0.000000 0.000000 9.950384 -5.513608 -3.977271 -2.944875 7.257576 -14.552608 0.000000 0.000000 0.000000 9.950384 -5.513608 -3.977271 4.142351 -4.736915 29.766658 -98.061074 29.336226 -48.805513 0.000001 -28.810151 -0.000000 0.000000 0.000000 0.000000 9.950384 -5.513608 -3.977271 5.149345 10.461781 -17.293224 -39.931598 45.580516 98.183764 -179.999786 77.438315 179.999800 0.000000 0.000000 0.000000 
